Joshua Lazarus has a special gift -- but will this gift destroy him before he can escape to freedom with his newly found soul mate?

 
CAST:

Taryn Manning.............Kira
Wallace Shawn.............Sandy
Nick Stahl................Joshua Lazarus
Blair Brown...............Bridger
Mía Maestro...............Anna Manheim
Erik Palladino............Butler
Alan Cox..................Alexei
Joshua Oppenheimer........Tarmac NSA Agent (as Josh Oppenheimer)
Evan Oppenheimer..........Boris (as Evan Lee Oppenheimer)
Marina Artigas............Slinky Woman
Stefania Tortorella.......Emily / Vanessa
Julio DePietro............Tarma NSA Agent
Jorge Sabate..............Diaz
Terrence Gray.............NSA Agent with earpiece
Zina......................Willing Woman 


SAMPLE INCLUDED: 30S/7.49mb

SOURCE: The.Speed.of.Thought.2011.BluRay.1080p.DTS.x264-FZHD


General
*******
Format                                   : Matroska
Format version                           : Version 2
File size                                : 1.37 GiB
Duration                                 : 1h 33mn
Overall bit rate                         : 2 089 Kbps
Writing application                      : HandBrake 0.9.5
Writing library                          : libmkv 0.6.4.1

Video
*****
ID                                       : 1
Format                                   : AVC
Format/Info                              : Advanced Video Codec
Format profile                           : Main@L3.0
Format settings, CABAC                   : Yes
Format settings, ReFrames                : 4 frames
Codec ID                                 : V_MPEG4/ISO/AVC
Duration                                 : 1h 33mn
Bit rate                                 : 1 637 Kbps
Width                                    : 720 pixels
Height                                   : 400 pixels
Display aspect ratio                     : 16:9
Frame rate mode                          : Variable
Frame rate                               : 23.976 fps
Color space                              : YUV
Chroma subsampling                       : 4:2:0
Bit depth                                : 8 bits
Scan type                                : Progressive
Bits/(Pixel*Frame)                       : 0.237
Stream size                              : 1.05 GiB (77%)
Writing library                          : x264 core 112


Audio
*****
ID                                       : 2
Format                                   : AC-3
Format/Info                              : Audio Coding 3
Mode extension                           : CM (complete main)
Codec ID                                 : A_AC3
Duration                                 : 1h 33mn
Bit rate mode                            : Constant
Bit rate                                 : 448 Kbps
Channel(s)                               : 6 channels
Channel positions                        : Front: L C R, Side: L R, LFE
Sampling rate                            : 48.0 KHz
Bit depth                                : 16 bits
Compression mode                         : Lossy
Delay relative to video                  : -1mn 5s
Stream size                              : 300 MiB (21%)
Language                                 : English

Text(subtitles)
***************
ID                                       : 3
Format                                   : UTF-8
Codec ID                                 : S_TEXT/UTF8
Codec ID/Info                            : UTF-8 Plain Text
Language                                 : Dutch
Language                                 : English
Language                                 : Romanian




PLEASE SEED FOR AS LONG AS POSSIBLE!